<?xml version="1.0" standalone="no"?><!DOCTYPE svg PUBLIC "-//W3C//DTD SVG 1.1//EN" "http://www.w3.org/Graphics/SVG/1.1/DTD/svg11.dtd"><svg t="1610971452486" class="icon" viewBox="0 0 1024 1024" version="1.1" xmlns="http://www.w3.org/2000/svg" p-id="1982" xmlns:xlink="http://www.w3.org/1999/xlink" width="200" height="200"><defs><style type="text/css"></style></defs><path d="M512 854.272c-333.44 0-448-299.52-448-331.136C64 491.456 177.28 192 512 192c334.656 0 448 298.816 448 331.136 0 32.32-114.56 331.136-448 331.136z m0-124.16c115.968 0 209.984-92.672 209.984-206.976S627.968 316.16 512 316.16 302.016 408.832 302.016 523.136 396.032 730.112 512 730.112z m0-82.816c-69.568 0-126.016-55.616-126.016-124.16 0-68.608 56.448-124.16 126.016-124.16 69.568 0 126.016 55.552 126.016 124.16 0 68.544-56.448 124.16-126.016 124.16z" p-id="1983"></path></svg>