<?xml version="1.0" standalone="no"?><!DOCTYPE svg PUBLIC "-//W3C//DTD SVG 1.1//EN" "http://www.w3.org/Graphics/SVG/1.1/DTD/svg11.dtd"><svg t="1611023579791" class="icon" viewBox="0 0 1024 1024" version="1.1" xmlns="http://www.w3.org/2000/svg" p-id="1025" width="32" height="32" xmlns:xlink="http://www.w3.org/1999/xlink"><defs><style type="text/css"></style></defs><path d="M546.465 808.339a23.669 23.669 0 0 0 23.771 23.536H931.75a23.536 23.536 0 0 0 0-47.124H570.257a23.669 23.669 0 0 0-23.772 23.536zM931.739 912.47H398.454a23.536 23.536 0 1 0 0 47.123H931.75a23.536 23.536 0 0 0 0-47.123z m-38.712-741.977l-78.293-78.14a95.792 95.792 0 0 0-135.311 0.133l-45.455 45.547-503.19 504.223c-0.399 0.4-0.777 0.83-1.146 1.26l-0.297 0.357q-0.45 0.563-0.86 1.157l-0.153 0.225c-0.307 0.46-0.583 0.941-0.849 1.422l-0.205 0.4c-0.204 0.398-0.399 0.797-0.573 1.217l-0.163 0.368c-0.205 0.512-0.4 1.024-0.563 1.566l-0.092 0.338c-0.072 0.266-0.154 0.521-0.225 0.788L65.686 897.786a19.35 19.35 0 0 0 23.423 23.382l246.32-60.477 0.368-0.113q0.563-0.153 1.116-0.337l0.747-0.266c0.337-0.123 0.665-0.266 1.023-0.41l0.798-0.368 0.85-0.45c0.286-0.164 0.573-0.328 0.86-0.502l0.705-0.47c0.307-0.215 0.604-0.43 0.89-0.655l0.604-0.492c0.297-0.255 0.583-0.511 0.87-0.788l0.287-0.266 548.624-549.77a95.904 95.904 0 0 0-0.133-135.311zM110.844 875.948l44.31-182.035L292.787 831.29z m219.94-61.398l-158.93-158.612 65.982-66.116 43.87-44.002L647.7 179.078 806.64 337.69z m534.952-536.088l-31.723 31.835-158.94-158.613 31.785-31.845a57.029 57.029 0 0 1 80.564-0.082l78.293 78.14a57.182 57.182 0 0 1 0.082 80.554z" fill="#8A8A8A" p-id="1026"></path></svg>